<mxfile host="app.diagrams.net" agent="Mozilla/5.0 (Windows NT 10.0; Win64; x64) AppleWebKit/537.36 (KHTML, like Gecko) Chrome/129.0.0.0 Safari/537.36" version="24.7.10">
  <diagram name="Página-1" id="45YSZJL1lTutnCP40QAi">
    <mxGraphModel dx="1633" dy="1652" grid="1" gridSize="10" guides="1" tooltips="1" connect="1" arrows="1" fold="1" page="1" pageScale="1" pageWidth="1169" pageHeight="827" math="0" shadow="0">
      <root>
        <mxCell id="0" />
        <mxCell id="1" parent="0" />
        <mxCell id="8tainLOtnj2ZsGHC-HFv-16" value="VPC" style="sketch=0;outlineConnect=0;gradientColor=none;html=1;whiteSpace=wrap;fontSize=12;fontStyle=0;shape=mxgraph.aws4.group;grIcon=mxgraph.aws4.group_vpc;strokeColor=#879196;fillColor=none;verticalAlign=top;align=left;spacingLeft=30;fontColor=#879196;dashed=0;" vertex="1" parent="1">
          <mxGeometry x="673" y="106" width="127" height="174" as="geometry" />
        </mxCell>
        <mxCell id="8tainLOtnj2ZsGHC-HFv-1" value="AWS Cloud" style="points=[[0,0],[0.25,0],[0.5,0],[0.75,0],[1,0],[1,0.25],[1,0.5],[1,0.75],[1,1],[0.75,1],[0.5,1],[0.25,1],[0,1],[0,0.75],[0,0.5],[0,0.25]];outlineConnect=0;gradientColor=none;html=1;whiteSpace=wrap;fontSize=12;fontStyle=0;container=0;pointerEvents=0;collapsible=0;recursiveResize=0;shape=mxgraph.aws4.group;grIcon=mxgraph.aws4.group_aws_cloud_alt;strokeColor=#232F3E;fillColor=none;verticalAlign=top;align=left;spacingLeft=30;fontColor=#232F3E;dashed=0;" vertex="1" parent="1">
          <mxGeometry x="260" y="-60" width="600" height="520" as="geometry" />
        </mxCell>
        <mxCell id="8tainLOtnj2ZsGHC-HFv-2" value="AWS Step Functions workflow" style="points=[[0,0],[0.25,0],[0.5,0],[0.75,0],[1,0],[1,0.25],[1,0.5],[1,0.75],[1,1],[0.75,1],[0.5,1],[0.25,1],[0,1],[0,0.75],[0,0.5],[0,0.25]];outlineConnect=0;gradientColor=none;html=1;whiteSpace=wrap;fontSize=12;fontStyle=0;container=1;pointerEvents=0;collapsible=0;recursiveResize=0;shape=mxgraph.aws4.group;grIcon=mxgraph.aws4.group_aws_step_functions_workflow;strokeColor=#CD2264;fillColor=none;verticalAlign=top;align=left;spacingLeft=30;fontColor=#CD2264;dashed=0;" vertex="1" parent="1">
          <mxGeometry x="302" y="106" width="357" height="174" as="geometry" />
        </mxCell>
        <mxCell id="8tainLOtnj2ZsGHC-HFv-3" value="ETL" style="sketch=0;points=[[0,0,0],[0.25,0,0],[0.5,0,0],[0.75,0,0],[1,0,0],[0,1,0],[0.25,1,0],[0.5,1,0],[0.75,1,0],[1,1,0],[0,0.25,0],[0,0.5,0],[0,0.75,0],[1,0.25,0],[1,0.5,0],[1,0.75,0]];outlineConnect=0;fontColor=#232F3E;fillColor=#8C4FFF;strokeColor=#ffffff;dashed=0;verticalLabelPosition=bottom;verticalAlign=top;align=center;html=1;fontSize=12;fontStyle=0;aspect=fixed;shape=mxgraph.aws4.resourceIcon;resIcon=mxgraph.aws4.glue;" vertex="1" parent="8tainLOtnj2ZsGHC-HFv-2">
          <mxGeometry x="37" y="40" width="78" height="78" as="geometry" />
        </mxCell>
        <mxCell id="8tainLOtnj2ZsGHC-HFv-5" value="Sagemaker Job" style="sketch=0;points=[[0,0,0],[0.25,0,0],[0.5,0,0],[0.75,0,0],[1,0,0],[0,1,0],[0.25,1,0],[0.5,1,0],[0.75,1,0],[1,1,0],[0,0.25,0],[0,0.5,0],[0,0.75,0],[1,0.25,0],[1,0.5,0],[1,0.75,0]];outlineConnect=0;fontColor=#232F3E;fillColor=#01A88D;strokeColor=#ffffff;dashed=0;verticalLabelPosition=bottom;verticalAlign=top;align=center;html=1;fontSize=12;fontStyle=0;aspect=fixed;shape=mxgraph.aws4.resourceIcon;resIcon=mxgraph.aws4.sagemaker;" vertex="1" parent="8tainLOtnj2ZsGHC-HFv-2">
          <mxGeometry x="199" y="40" width="78" height="78" as="geometry" />
        </mxCell>
        <mxCell id="8tainLOtnj2ZsGHC-HFv-4" value="Dados processados" style="sketch=0;points=[[0,0,0],[0.25,0,0],[0.5,0,0],[0.75,0,0],[1,0,0],[0,1,0],[0.25,1,0],[0.5,1,0],[0.75,1,0],[1,1,0],[0,0.25,0],[0,0.5,0],[0,0.75,0],[1,0.25,0],[1,0.5,0],[1,0.75,0]];outlineConnect=0;fontColor=#232F3E;fillColor=#7AA116;strokeColor=#ffffff;dashed=0;verticalLabelPosition=bottom;verticalAlign=top;align=center;html=1;fontSize=12;fontStyle=0;aspect=fixed;shape=mxgraph.aws4.resourceIcon;resIcon=mxgraph.aws4.s3;" vertex="1" parent="8tainLOtnj2ZsGHC-HFv-2">
          <mxGeometry x="119" y="203" width="78" height="78" as="geometry" />
        </mxCell>
        <mxCell id="8tainLOtnj2ZsGHC-HFv-6" value="Binário do&lt;div&gt;modelo de ML&lt;/div&gt;" style="sketch=0;points=[[0,0,0],[0.25,0,0],[0.5,0,0],[0.75,0,0],[1,0,0],[0,1,0],[0.25,1,0],[0.5,1,0],[0.75,1,0],[1,1,0],[0,0.25,0],[0,0.5,0],[0,0.75,0],[1,0.25,0],[1,0.5,0],[1,0.75,0]];outlineConnect=0;fontColor=#232F3E;fillColor=#7AA116;strokeColor=#ffffff;dashed=0;verticalLabelPosition=bottom;verticalAlign=top;align=center;html=1;fontSize=12;fontStyle=0;aspect=fixed;shape=mxgraph.aws4.resourceIcon;resIcon=mxgraph.aws4.s3;" vertex="1" parent="8tainLOtnj2ZsGHC-HFv-2">
          <mxGeometry x="279" y="203" width="78" height="78" as="geometry" />
        </mxCell>
        <mxCell id="8tainLOtnj2ZsGHC-HFv-7" style="edgeStyle=orthogonalEdgeStyle;rounded=0;orthogonalLoop=1;jettySize=auto;html=1;exitX=1;exitY=0.5;exitDx=0;exitDy=0;exitPerimeter=0;" edge="1" parent="8tainLOtnj2ZsGHC-HFv-2" source="8tainLOtnj2ZsGHC-HFv-3" target="8tainLOtnj2ZsGHC-HFv-4">
          <mxGeometry relative="1" as="geometry" />
        </mxCell>
        <mxCell id="8tainLOtnj2ZsGHC-HFv-8" style="edgeStyle=orthogonalEdgeStyle;rounded=0;orthogonalLoop=1;jettySize=auto;html=1;" edge="1" parent="8tainLOtnj2ZsGHC-HFv-2" source="8tainLOtnj2ZsGHC-HFv-4" target="8tainLOtnj2ZsGHC-HFv-5">
          <mxGeometry relative="1" as="geometry" />
        </mxCell>
        <mxCell id="8tainLOtnj2ZsGHC-HFv-9" style="edgeStyle=orthogonalEdgeStyle;rounded=0;orthogonalLoop=1;jettySize=auto;html=1;entryX=0.5;entryY=0;entryDx=0;entryDy=0;entryPerimeter=0;" edge="1" parent="8tainLOtnj2ZsGHC-HFv-2" source="8tainLOtnj2ZsGHC-HFv-5" target="8tainLOtnj2ZsGHC-HFv-6">
          <mxGeometry relative="1" as="geometry" />
        </mxCell>
        <mxCell id="8tainLOtnj2ZsGHC-HFv-21" style="edgeStyle=orthogonalEdgeStyle;rounded=0;orthogonalLoop=1;jettySize=auto;html=1;" edge="1" parent="1" source="8tainLOtnj2ZsGHC-HFv-10" target="8tainLOtnj2ZsGHC-HFv-19">
          <mxGeometry relative="1" as="geometry" />
        </mxCell>
        <mxCell id="8tainLOtnj2ZsGHC-HFv-10" value="Cluster da API&lt;div&gt;p/ inferência&lt;/div&gt;" style="sketch=0;points=[[0,0,0],[0.25,0,0],[0.5,0,0],[0.75,0,0],[1,0,0],[0,1,0],[0.25,1,0],[0.5,1,0],[0.75,1,0],[1,1,0],[0,0.25,0],[0,0.5,0],[0,0.75,0],[1,0.25,0],[1,0.5,0],[1,0.75,0]];outlineConnect=0;fontColor=#232F3E;fillColor=#ED7100;strokeColor=#ffffff;dashed=0;verticalLabelPosition=bottom;verticalAlign=top;align=center;html=1;fontSize=12;fontStyle=0;aspect=fixed;shape=mxgraph.aws4.resourceIcon;resIcon=mxgraph.aws4.eks;" vertex="1" parent="1">
          <mxGeometry x="699" y="146" width="78" height="78" as="geometry" />
        </mxCell>
        <mxCell id="8tainLOtnj2ZsGHC-HFv-11" style="edgeStyle=orthogonalEdgeStyle;rounded=0;orthogonalLoop=1;jettySize=auto;html=1;" edge="1" parent="1" source="8tainLOtnj2ZsGHC-HFv-6" target="8tainLOtnj2ZsGHC-HFv-10">
          <mxGeometry relative="1" as="geometry" />
        </mxCell>
        <mxCell id="8tainLOtnj2ZsGHC-HFv-12" value="Registro de imagem&lt;div&gt;da&amp;nbsp;&lt;span style=&quot;background-color: initial;&quot;&gt;API&lt;/span&gt;&lt;/div&gt;" style="sketch=0;points=[[0,0,0],[0.25,0,0],[0.5,0,0],[0.75,0,0],[1,0,0],[0,1,0],[0.25,1,0],[0.5,1,0],[0.75,1,0],[1,1,0],[0,0.25,0],[0,0.5,0],[0,0.75,0],[1,0.25,0],[1,0.5,0],[1,0.75,0]];outlineConnect=0;fontColor=#232F3E;fillColor=#ED7100;strokeColor=#ffffff;dashed=0;verticalLabelPosition=bottom;verticalAlign=top;align=center;html=1;fontSize=12;fontStyle=0;aspect=fixed;shape=mxgraph.aws4.resourceIcon;resIcon=mxgraph.aws4.ecr;" vertex="1" parent="1">
          <mxGeometry x="699" y="-18" width="78" height="78" as="geometry" />
        </mxCell>
        <mxCell id="8tainLOtnj2ZsGHC-HFv-13" style="edgeStyle=orthogonalEdgeStyle;rounded=0;orthogonalLoop=1;jettySize=auto;html=1;entryX=0.5;entryY=0;entryDx=0;entryDy=0;entryPerimeter=0;" edge="1" parent="1" source="8tainLOtnj2ZsGHC-HFv-12" target="8tainLOtnj2ZsGHC-HFv-10">
          <mxGeometry relative="1" as="geometry" />
        </mxCell>
        <mxCell id="8tainLOtnj2ZsGHC-HFv-14" value="Registro de imagem&lt;div&gt;do modelo de ML&lt;/div&gt;" style="sketch=0;points=[[0,0,0],[0.25,0,0],[0.5,0,0],[0.75,0,0],[1,0,0],[0,1,0],[0.25,1,0],[0.5,1,0],[0.75,1,0],[1,1,0],[0,0.25,0],[0,0.5,0],[0,0.75,0],[1,0.25,0],[1,0.5,0],[1,0.75,0]];outlineConnect=0;fontColor=#232F3E;fillColor=#ED7100;strokeColor=#ffffff;dashed=0;verticalLabelPosition=bottom;verticalAlign=top;align=center;html=1;fontSize=12;fontStyle=0;aspect=fixed;shape=mxgraph.aws4.resourceIcon;resIcon=mxgraph.aws4.ecr;" vertex="1" parent="1">
          <mxGeometry x="501" y="-18" width="78" height="78" as="geometry" />
        </mxCell>
        <mxCell id="8tainLOtnj2ZsGHC-HFv-15" style="edgeStyle=orthogonalEdgeStyle;rounded=0;orthogonalLoop=1;jettySize=auto;html=1;entryX=0.5;entryY=0;entryDx=0;entryDy=0;entryPerimeter=0;" edge="1" parent="1" source="8tainLOtnj2ZsGHC-HFv-14" target="8tainLOtnj2ZsGHC-HFv-5">
          <mxGeometry relative="1" as="geometry" />
        </mxCell>
        <mxCell id="8tainLOtnj2ZsGHC-HFv-23" style="edgeStyle=orthogonalEdgeStyle;rounded=0;orthogonalLoop=1;jettySize=auto;html=1;" edge="1" parent="1" source="8tainLOtnj2ZsGHC-HFv-19">
          <mxGeometry relative="1" as="geometry">
            <mxPoint x="940" y="185.00000000000023" as="targetPoint" />
          </mxGeometry>
        </mxCell>
        <mxCell id="8tainLOtnj2ZsGHC-HFv-19" value="Internet&lt;div&gt;Gateway&lt;/div&gt;" style="sketch=0;outlineConnect=0;fontColor=#232F3E;gradientColor=none;fillColor=#8C4FFF;strokeColor=none;dashed=0;verticalLabelPosition=bottom;verticalAlign=top;align=center;html=1;fontSize=12;fontStyle=0;aspect=fixed;pointerEvents=1;shape=mxgraph.aws4.internet_gateway;" vertex="1" parent="1">
          <mxGeometry x="820" y="146" width="78" height="78" as="geometry" />
        </mxCell>
        <mxCell id="8tainLOtnj2ZsGHC-HFv-22" value="Usuários" style="sketch=0;outlineConnect=0;fontColor=#232F3E;gradientColor=none;fillColor=#232F3D;strokeColor=none;dashed=0;verticalLabelPosition=bottom;verticalAlign=top;align=center;html=1;fontSize=12;fontStyle=0;aspect=fixed;pointerEvents=1;shape=mxgraph.aws4.users;" vertex="1" parent="1">
          <mxGeometry x="944" y="146" width="78" height="78" as="geometry" />
        </mxCell>
        <mxCell id="8tainLOtnj2ZsGHC-HFv-27" style="edgeStyle=orthogonalEdgeStyle;rounded=0;orthogonalLoop=1;jettySize=auto;html=1;" edge="1" parent="1" source="8tainLOtnj2ZsGHC-HFv-24" target="8tainLOtnj2ZsGHC-HFv-1">
          <mxGeometry relative="1" as="geometry" />
        </mxCell>
        <mxCell id="8tainLOtnj2ZsGHC-HFv-31" value="GitHub Actions&lt;div&gt;Terraform&lt;/div&gt;" style="edgeLabel;html=1;align=center;verticalAlign=middle;resizable=0;points=[];" vertex="1" connectable="0" parent="8tainLOtnj2ZsGHC-HFv-27">
          <mxGeometry x="-0.0238" relative="1" as="geometry">
            <mxPoint as="offset" />
          </mxGeometry>
        </mxCell>
        <mxCell id="8tainLOtnj2ZsGHC-HFv-24" value="" style="sketch=0;outlineConnect=0;fontColor=#232F3E;gradientColor=none;fillColor=#232F3D;strokeColor=none;dashed=0;verticalLabelPosition=bottom;verticalAlign=top;align=center;html=1;fontSize=12;fontStyle=0;aspect=fixed;pointerEvents=1;shape=mxgraph.aws4.user;" vertex="1" parent="1">
          <mxGeometry x="52" y="161" width="78" height="78" as="geometry" />
        </mxCell>
        <mxCell id="8tainLOtnj2ZsGHC-HFv-33" value="AWS Cloud" style="points=[[0,0],[0.25,0],[0.5,0],[0.75,0],[1,0],[1,0.25],[1,0.5],[1,0.75],[1,1],[0.75,1],[0.5,1],[0.25,1],[0,1],[0,0.75],[0,0.5],[0,0.25]];outlineConnect=0;gradientColor=none;html=1;whiteSpace=wrap;fontSize=12;fontStyle=0;container=0;pointerEvents=0;collapsible=0;recursiveResize=0;shape=mxgraph.aws4.group;grIcon=mxgraph.aws4.group_aws_cloud_alt;strokeColor=#232F3E;fillColor=none;verticalAlign=top;align=left;spacingLeft=30;fontColor=#232F3E;dashed=0;" vertex="1" parent="1">
          <mxGeometry x="258" y="540" width="600" height="520" as="geometry" />
        </mxCell>
        <mxCell id="8tainLOtnj2ZsGHC-HFv-34" value="AWS Step Functions workflow" style="points=[[0,0],[0.25,0],[0.5,0],[0.75,0],[1,0],[1,0.25],[1,0.5],[1,0.75],[1,1],[0.75,1],[0.5,1],[0.25,1],[0,1],[0,0.75],[0,0.5],[0,0.25]];outlineConnect=0;gradientColor=none;html=1;whiteSpace=wrap;fontSize=12;fontStyle=0;container=1;pointerEvents=0;collapsible=0;recursiveResize=0;shape=mxgraph.aws4.group;grIcon=mxgraph.aws4.group_aws_step_functions_workflow;strokeColor=#CD2264;fillColor=none;verticalAlign=top;align=left;spacingLeft=30;fontColor=#CD2264;dashed=0;" vertex="1" parent="1">
          <mxGeometry x="319" y="706" width="470" height="174" as="geometry" />
        </mxCell>
        <mxCell id="8tainLOtnj2ZsGHC-HFv-35" value="ETL" style="sketch=0;points=[[0,0,0],[0.25,0,0],[0.5,0,0],[0.75,0,0],[1,0,0],[0,1,0],[0.25,1,0],[0.5,1,0],[0.75,1,0],[1,1,0],[0,0.25,0],[0,0.5,0],[0,0.75,0],[1,0.25,0],[1,0.5,0],[1,0.75,0]];outlineConnect=0;fontColor=#232F3E;fillColor=#8C4FFF;strokeColor=#ffffff;dashed=0;verticalLabelPosition=bottom;verticalAlign=top;align=center;html=1;fontSize=12;fontStyle=0;aspect=fixed;shape=mxgraph.aws4.resourceIcon;resIcon=mxgraph.aws4.glue;" vertex="1" parent="8tainLOtnj2ZsGHC-HFv-34">
          <mxGeometry x="37" y="40" width="78" height="78" as="geometry" />
        </mxCell>
        <mxCell id="8tainLOtnj2ZsGHC-HFv-36" value="Sagemaker Job" style="sketch=0;points=[[0,0,0],[0.25,0,0],[0.5,0,0],[0.75,0,0],[1,0,0],[0,1,0],[0.25,1,0],[0.5,1,0],[0.75,1,0],[1,1,0],[0,0.25,0],[0,0.5,0],[0,0.75,0],[1,0.25,0],[1,0.5,0],[1,0.75,0]];outlineConnect=0;fontColor=#232F3E;fillColor=#01A88D;strokeColor=#ffffff;dashed=0;verticalLabelPosition=bottom;verticalAlign=top;align=center;html=1;fontSize=12;fontStyle=0;aspect=fixed;shape=mxgraph.aws4.resourceIcon;resIcon=mxgraph.aws4.sagemaker;" vertex="1" parent="8tainLOtnj2ZsGHC-HFv-34">
          <mxGeometry x="199" y="40" width="78" height="78" as="geometry" />
        </mxCell>
        <mxCell id="8tainLOtnj2ZsGHC-HFv-37" value="Dados processados" style="sketch=0;points=[[0,0,0],[0.25,0,0],[0.5,0,0],[0.75,0,0],[1,0,0],[0,1,0],[0.25,1,0],[0.5,1,0],[0.75,1,0],[1,1,0],[0,0.25,0],[0,0.5,0],[0,0.75,0],[1,0.25,0],[1,0.5,0],[1,0.75,0]];outlineConnect=0;fontColor=#232F3E;fillColor=#7AA116;strokeColor=#ffffff;dashed=0;verticalLabelPosition=bottom;verticalAlign=top;align=center;html=1;fontSize=12;fontStyle=0;aspect=fixed;shape=mxgraph.aws4.resourceIcon;resIcon=mxgraph.aws4.s3;" vertex="1" parent="8tainLOtnj2ZsGHC-HFv-34">
          <mxGeometry x="119" y="203" width="78" height="78" as="geometry" />
        </mxCell>
        <mxCell id="8tainLOtnj2ZsGHC-HFv-38" value="Binário do&lt;div&gt;modelo de ML&lt;/div&gt;" style="sketch=0;points=[[0,0,0],[0.25,0,0],[0.5,0,0],[0.75,0,0],[1,0,0],[0,1,0],[0.25,1,0],[0.5,1,0],[0.75,1,0],[1,1,0],[0,0.25,0],[0,0.5,0],[0,0.75,0],[1,0.25,0],[1,0.5,0],[1,0.75,0]];outlineConnect=0;fontColor=#232F3E;fillColor=#7AA116;strokeColor=#ffffff;dashed=0;verticalLabelPosition=bottom;verticalAlign=top;align=center;html=1;fontSize=12;fontStyle=0;aspect=fixed;shape=mxgraph.aws4.resourceIcon;resIcon=mxgraph.aws4.s3;" vertex="1" parent="8tainLOtnj2ZsGHC-HFv-34">
          <mxGeometry x="279" y="203" width="78" height="78" as="geometry" />
        </mxCell>
        <mxCell id="8tainLOtnj2ZsGHC-HFv-39" style="edgeStyle=orthogonalEdgeStyle;rounded=0;orthogonalLoop=1;jettySize=auto;html=1;exitX=1;exitY=0.5;exitDx=0;exitDy=0;exitPerimeter=0;" edge="1" parent="8tainLOtnj2ZsGHC-HFv-34" source="8tainLOtnj2ZsGHC-HFv-35" target="8tainLOtnj2ZsGHC-HFv-37">
          <mxGeometry relative="1" as="geometry" />
        </mxCell>
        <mxCell id="8tainLOtnj2ZsGHC-HFv-40" style="edgeStyle=orthogonalEdgeStyle;rounded=0;orthogonalLoop=1;jettySize=auto;html=1;" edge="1" parent="8tainLOtnj2ZsGHC-HFv-34" source="8tainLOtnj2ZsGHC-HFv-37" target="8tainLOtnj2ZsGHC-HFv-36">
          <mxGeometry relative="1" as="geometry" />
        </mxCell>
        <mxCell id="8tainLOtnj2ZsGHC-HFv-41" style="edgeStyle=orthogonalEdgeStyle;rounded=0;orthogonalLoop=1;jettySize=auto;html=1;entryX=0.5;entryY=0;entryDx=0;entryDy=0;entryPerimeter=0;" edge="1" parent="8tainLOtnj2ZsGHC-HFv-34" source="8tainLOtnj2ZsGHC-HFv-36" target="8tainLOtnj2ZsGHC-HFv-38">
          <mxGeometry relative="1" as="geometry" />
        </mxCell>
        <mxCell id="8tainLOtnj2ZsGHC-HFv-55" value="Sagemaker Endpoint" style="sketch=0;points=[[0,0,0],[0.25,0,0],[0.5,0,0],[0.75,0,0],[1,0,0],[0,1,0],[0.25,1,0],[0.5,1,0],[0.75,1,0],[1,1,0],[0,0.25,0],[0,0.5,0],[0,0.75,0],[1,0.25,0],[1,0.5,0],[1,0.75,0]];outlineConnect=0;fontColor=#232F3E;fillColor=#01A88D;strokeColor=#ffffff;dashed=0;verticalLabelPosition=bottom;verticalAlign=top;align=center;html=1;fontSize=12;fontStyle=0;aspect=fixed;shape=mxgraph.aws4.resourceIcon;resIcon=mxgraph.aws4.sagemaker;" vertex="1" parent="8tainLOtnj2ZsGHC-HFv-34">
          <mxGeometry x="357" y="40" width="78" height="78" as="geometry" />
        </mxCell>
        <mxCell id="8tainLOtnj2ZsGHC-HFv-44" style="edgeStyle=orthogonalEdgeStyle;rounded=0;orthogonalLoop=1;jettySize=auto;html=1;entryX=0.5;entryY=1;entryDx=0;entryDy=0;entryPerimeter=0;" edge="1" parent="8tainLOtnj2ZsGHC-HFv-34" source="8tainLOtnj2ZsGHC-HFv-38" target="8tainLOtnj2ZsGHC-HFv-55">
          <mxGeometry relative="1" as="geometry">
            <mxPoint x="436.0588235294117" y="118.00000000000045" as="targetPoint" />
            <Array as="points">
              <mxPoint x="396" y="242" />
            </Array>
          </mxGeometry>
        </mxCell>
        <mxCell id="8tainLOtnj2ZsGHC-HFv-42" style="edgeStyle=orthogonalEdgeStyle;rounded=0;orthogonalLoop=1;jettySize=auto;html=1;" edge="1" parent="1" source="8tainLOtnj2ZsGHC-HFv-55" target="8tainLOtnj2ZsGHC-HFv-51">
          <mxGeometry relative="1" as="geometry">
            <mxPoint x="793" y="785.0000000000005" as="sourcePoint" />
            <mxPoint x="890" y="785" as="targetPoint" />
          </mxGeometry>
        </mxCell>
        <mxCell id="8tainLOtnj2ZsGHC-HFv-45" value="Registro de imagem&lt;div&gt;da&amp;nbsp;&lt;span style=&quot;background-color: initial;&quot;&gt;API&lt;/span&gt;&lt;/div&gt;" style="sketch=0;points=[[0,0,0],[0.25,0,0],[0.5,0,0],[0.75,0,0],[1,0,0],[0,1,0],[0.25,1,0],[0.5,1,0],[0.75,1,0],[1,1,0],[0,0.25,0],[0,0.5,0],[0,0.75,0],[1,0.25,0],[1,0.5,0],[1,0.75,0]];outlineConnect=0;fontColor=#232F3E;fillColor=#ED7100;strokeColor=#ffffff;dashed=0;verticalLabelPosition=bottom;verticalAlign=top;align=center;html=1;fontSize=12;fontStyle=0;aspect=fixed;shape=mxgraph.aws4.resourceIcon;resIcon=mxgraph.aws4.ecr;" vertex="1" parent="1">
          <mxGeometry x="678" y="582" width="78" height="78" as="geometry" />
        </mxCell>
        <mxCell id="8tainLOtnj2ZsGHC-HFv-46" style="edgeStyle=orthogonalEdgeStyle;rounded=0;orthogonalLoop=1;jettySize=auto;html=1;" edge="1" parent="1" source="8tainLOtnj2ZsGHC-HFv-45">
          <mxGeometry relative="1" as="geometry">
            <mxPoint x="717" y="746" as="targetPoint" />
            <Array as="points">
              <mxPoint x="717" y="746" />
            </Array>
          </mxGeometry>
        </mxCell>
        <mxCell id="8tainLOtnj2ZsGHC-HFv-47" value="Registro de imagem&lt;div&gt;do modelo de ML&lt;/div&gt;" style="sketch=0;points=[[0,0,0],[0.25,0,0],[0.5,0,0],[0.75,0,0],[1,0,0],[0,1,0],[0.25,1,0],[0.5,1,0],[0.75,1,0],[1,1,0],[0,0.25,0],[0,0.5,0],[0,0.75,0],[1,0.25,0],[1,0.5,0],[1,0.75,0]];outlineConnect=0;fontColor=#232F3E;fillColor=#ED7100;strokeColor=#ffffff;dashed=0;verticalLabelPosition=bottom;verticalAlign=top;align=center;html=1;fontSize=12;fontStyle=0;aspect=fixed;shape=mxgraph.aws4.resourceIcon;resIcon=mxgraph.aws4.ecr;" vertex="1" parent="1">
          <mxGeometry x="518" y="582" width="78" height="78" as="geometry" />
        </mxCell>
        <mxCell id="8tainLOtnj2ZsGHC-HFv-48" style="edgeStyle=orthogonalEdgeStyle;rounded=0;orthogonalLoop=1;jettySize=auto;html=1;entryX=0.5;entryY=0;entryDx=0;entryDy=0;entryPerimeter=0;" edge="1" parent="1" source="8tainLOtnj2ZsGHC-HFv-47" target="8tainLOtnj2ZsGHC-HFv-36">
          <mxGeometry relative="1" as="geometry" />
        </mxCell>
        <mxCell id="8tainLOtnj2ZsGHC-HFv-51" value="Usuários" style="sketch=0;outlineConnect=0;fontColor=#232F3E;gradientColor=none;fillColor=#232F3D;strokeColor=none;dashed=0;verticalLabelPosition=bottom;verticalAlign=top;align=center;html=1;fontSize=12;fontStyle=0;aspect=fixed;pointerEvents=1;shape=mxgraph.aws4.users;" vertex="1" parent="1">
          <mxGeometry x="912" y="746" width="78" height="78" as="geometry" />
        </mxCell>
        <mxCell id="8tainLOtnj2ZsGHC-HFv-52" style="edgeStyle=orthogonalEdgeStyle;rounded=0;orthogonalLoop=1;jettySize=auto;html=1;" edge="1" parent="1" source="8tainLOtnj2ZsGHC-HFv-54" target="8tainLOtnj2ZsGHC-HFv-33">
          <mxGeometry relative="1" as="geometry" />
        </mxCell>
        <mxCell id="8tainLOtnj2ZsGHC-HFv-53" value="GitHub Actions&lt;div&gt;Terraform&lt;/div&gt;" style="edgeLabel;html=1;align=center;verticalAlign=middle;resizable=0;points=[];" vertex="1" connectable="0" parent="8tainLOtnj2ZsGHC-HFv-52">
          <mxGeometry x="-0.0238" relative="1" as="geometry">
            <mxPoint as="offset" />
          </mxGeometry>
        </mxCell>
        <mxCell id="8tainLOtnj2ZsGHC-HFv-54" value="" style="sketch=0;outlineConnect=0;fontColor=#232F3E;gradientColor=none;fillColor=#232F3D;strokeColor=none;dashed=0;verticalLabelPosition=bottom;verticalAlign=top;align=center;html=1;fontSize=12;fontStyle=0;aspect=fixed;pointerEvents=1;shape=mxgraph.aws4.user;" vertex="1" parent="1">
          <mxGeometry x="50" y="761" width="78" height="78" as="geometry" />
        </mxCell>
      </root>
    </mxGraphModel>
  </diagram>
</mxfile>
